<mxfile host="app.diagrams.net" modified="2023-06-02T17:04:44.553Z" agent="Mozilla/5.0 (Windows NT 10.0; Win64; x64) AppleWebKit/537.36 (KHTML, like Gecko) Chrome/114.0.0.0 Safari/537.36" etag="aTb9Hu1CJeKkISpgQNOg" version="21.3.6" type="device">
  <diagram id="m5zZ38K6MGrYSZX0DE65" name="Страница 1">
    <mxGraphModel dx="2812" dy="874" grid="1" gridSize="10" guides="1" tooltips="1" connect="1" arrows="1" fold="1" page="1" pageScale="1" pageWidth="827" pageHeight="1169" math="0" shadow="0">
      <root>
        <mxCell id="0" />
        <mxCell id="1" parent="0" />
        <mxCell id="ZX3n14dEDowEOb79098K-1" value="Мастер" style="swimlane;html=1;fontStyle=0;childLayout=stackLayout;horizontal=1;startSize=26;fillColor=#e0e0e0;horizontalStack=0;resizeParent=1;resizeLast=0;collapsible=1;marginBottom=0;swimlaneFillColor=#ffffff;align=center;rounded=0;shadow=0;comic=0;labelBackgroundColor=none;strokeWidth=1;fontFamily=Verdana;fontSize=14;swimlaneLine=1;" vertex="1" parent="1">
          <mxGeometry x="80" y="280" width="160" height="134" as="geometry">
            <mxRectangle x="500" y="140" width="90" height="30" as="alternateBounds" />
          </mxGeometry>
        </mxCell>
        <mxCell id="ZX3n14dEDowEOb79098K-2" value="IDМастер" style="shape=partialRectangle;top=0;left=0;right=0;bottom=1;html=1;align=left;verticalAlign=middle;fillColor=none;spacingLeft=34;spacingRight=4;whiteSpace=wrap;overflow=hidden;rotatable=0;points=[[0,0.5],[1,0.5]];portConstraint=eastwest;dropTarget=0;fontStyle=5;swimlaneLine=1;shadow=0;" vertex="1" parent="ZX3n14dEDowEOb79098K-1">
          <mxGeometry y="26" width="160" height="30" as="geometry" />
        </mxCell>
        <mxCell id="ZX3n14dEDowEOb79098K-3" value="PK" style="shape=partialRectangle;top=0;left=0;bottom=0;html=1;fillColor=none;align=left;verticalAlign=middle;spacingLeft=4;spacingRight=4;whiteSpace=wrap;overflow=hidden;rotatable=0;points=[];portConstraint=eastwest;part=1;swimlaneLine=1;shadow=0;" vertex="1" connectable="0" parent="ZX3n14dEDowEOb79098K-2">
          <mxGeometry width="30" height="30" as="geometry" />
        </mxCell>
        <mxCell id="ZX3n14dEDowEOb79098K-4" value="Телефон" style="shape=partialRectangle;top=0;left=0;right=0;bottom=0;html=1;align=left;verticalAlign=top;fillColor=none;spacingLeft=34;spacingRight=4;whiteSpace=wrap;overflow=hidden;rotatable=0;points=[[0,0.5],[1,0.5]];portConstraint=eastwest;dropTarget=0;swimlaneLine=1;shadow=0;" vertex="1" parent="ZX3n14dEDowEOb79098K-1">
          <mxGeometry y="56" width="160" height="26" as="geometry" />
        </mxCell>
        <mxCell id="ZX3n14dEDowEOb79098K-5" value="" style="shape=partialRectangle;top=0;left=0;bottom=0;html=1;fillColor=none;align=left;verticalAlign=top;spacingLeft=4;spacingRight=4;whiteSpace=wrap;overflow=hidden;rotatable=0;points=[];portConstraint=eastwest;part=1;swimlaneLine=1;shadow=0;" vertex="1" connectable="0" parent="ZX3n14dEDowEOb79098K-4">
          <mxGeometry width="30" height="26" as="geometry" />
        </mxCell>
        <mxCell id="ZX3n14dEDowEOb79098K-6" value="Фамилия" style="shape=partialRectangle;top=0;left=0;right=0;bottom=0;html=1;align=left;verticalAlign=top;fillColor=none;spacingLeft=34;spacingRight=4;whiteSpace=wrap;overflow=hidden;rotatable=0;points=[[0,0.5],[1,0.5]];portConstraint=eastwest;dropTarget=0;swimlaneLine=1;shadow=0;" vertex="1" parent="ZX3n14dEDowEOb79098K-1">
          <mxGeometry y="82" width="160" height="26" as="geometry" />
        </mxCell>
        <mxCell id="ZX3n14dEDowEOb79098K-7" value="" style="shape=partialRectangle;top=0;left=0;bottom=0;html=1;fillColor=none;align=left;verticalAlign=top;spacingLeft=4;spacingRight=4;whiteSpace=wrap;overflow=hidden;rotatable=0;points=[];portConstraint=eastwest;part=1;swimlaneLine=1;shadow=0;" vertex="1" connectable="0" parent="ZX3n14dEDowEOb79098K-6">
          <mxGeometry width="30" height="26" as="geometry" />
        </mxCell>
        <mxCell id="ZX3n14dEDowEOb79098K-8" value="Имя" style="shape=partialRectangle;top=0;left=0;right=0;bottom=0;html=1;align=left;verticalAlign=top;fillColor=none;spacingLeft=34;spacingRight=4;whiteSpace=wrap;overflow=hidden;rotatable=0;points=[[0,0.5],[1,0.5]];portConstraint=eastwest;dropTarget=0;swimlaneLine=1;shadow=0;" vertex="1" parent="ZX3n14dEDowEOb79098K-1">
          <mxGeometry y="108" width="160" height="26" as="geometry" />
        </mxCell>
        <mxCell id="ZX3n14dEDowEOb79098K-9" value="" style="shape=partialRectangle;top=0;left=0;bottom=0;html=1;fillColor=none;align=left;verticalAlign=top;spacingLeft=4;spacingRight=4;whiteSpace=wrap;overflow=hidden;rotatable=0;points=[];portConstraint=eastwest;part=1;swimlaneLine=1;shadow=0;" vertex="1" connectable="0" parent="ZX3n14dEDowEOb79098K-8">
          <mxGeometry width="30" height="26" as="geometry" />
        </mxCell>
        <mxCell id="ZX3n14dEDowEOb79098K-10" value="Заказ" style="swimlane;html=1;fontStyle=0;childLayout=stackLayout;horizontal=1;startSize=26;fillColor=#e0e0e0;horizontalStack=0;resizeParent=1;resizeLast=0;collapsible=1;marginBottom=0;swimlaneFillColor=#ffffff;align=center;rounded=0;shadow=0;comic=0;labelBackgroundColor=none;strokeWidth=1;fontFamily=Verdana;fontSize=14;swimlaneLine=1;" vertex="1" parent="1">
          <mxGeometry x="360" y="120" width="160" height="186" as="geometry">
            <mxRectangle x="500" y="140" width="90" height="30" as="alternateBounds" />
          </mxGeometry>
        </mxCell>
        <mxCell id="ZX3n14dEDowEOb79098K-11" value="IDЗаказа" style="shape=partialRectangle;top=0;left=0;right=0;bottom=1;html=1;align=left;verticalAlign=middle;fillColor=none;spacingLeft=34;spacingRight=4;whiteSpace=wrap;overflow=hidden;rotatable=0;points=[[0,0.5],[1,0.5]];portConstraint=eastwest;dropTarget=0;fontStyle=5;swimlaneLine=1;shadow=0;" vertex="1" parent="ZX3n14dEDowEOb79098K-10">
          <mxGeometry y="26" width="160" height="30" as="geometry" />
        </mxCell>
        <mxCell id="ZX3n14dEDowEOb79098K-12" value="PK" style="shape=partialRectangle;top=0;left=0;bottom=0;html=1;fillColor=none;align=left;verticalAlign=middle;spacingLeft=4;spacingRight=4;whiteSpace=wrap;overflow=hidden;rotatable=0;points=[];portConstraint=eastwest;part=1;swimlaneLine=1;shadow=0;" vertex="1" connectable="0" parent="ZX3n14dEDowEOb79098K-11">
          <mxGeometry width="30" height="30" as="geometry" />
        </mxCell>
        <mxCell id="ZX3n14dEDowEOb79098K-13" value="ТелефонКлиента" style="shape=partialRectangle;top=0;left=0;right=0;bottom=0;html=1;align=left;verticalAlign=top;fillColor=none;spacingLeft=34;spacingRight=4;whiteSpace=wrap;overflow=hidden;rotatable=0;points=[[0,0.5],[1,0.5]];portConstraint=eastwest;dropTarget=0;swimlaneLine=1;shadow=0;" vertex="1" parent="ZX3n14dEDowEOb79098K-10">
          <mxGeometry y="56" width="160" height="26" as="geometry" />
        </mxCell>
        <mxCell id="ZX3n14dEDowEOb79098K-14" value="" style="shape=partialRectangle;top=0;left=0;bottom=0;html=1;fillColor=none;align=left;verticalAlign=top;spacingLeft=4;spacingRight=4;whiteSpace=wrap;overflow=hidden;rotatable=0;points=[];portConstraint=eastwest;part=1;swimlaneLine=1;shadow=0;" vertex="1" connectable="0" parent="ZX3n14dEDowEOb79098K-13">
          <mxGeometry width="30" height="26" as="geometry" />
        </mxCell>
        <mxCell id="ZX3n14dEDowEOb79098K-15" value="IDМастер" style="shape=partialRectangle;top=0;left=0;right=0;bottom=0;html=1;align=left;verticalAlign=top;fillColor=none;spacingLeft=34;spacingRight=4;whiteSpace=wrap;overflow=hidden;rotatable=0;points=[[0,0.5],[1,0.5]];portConstraint=eastwest;dropTarget=0;swimlaneLine=1;shadow=0;" vertex="1" parent="ZX3n14dEDowEOb79098K-10">
          <mxGeometry y="82" width="160" height="26" as="geometry" />
        </mxCell>
        <mxCell id="ZX3n14dEDowEOb79098K-16" value="" style="shape=partialRectangle;top=0;left=0;bottom=0;html=1;fillColor=none;align=left;verticalAlign=top;spacingLeft=4;spacingRight=4;whiteSpace=wrap;overflow=hidden;rotatable=0;points=[];portConstraint=eastwest;part=1;swimlaneLine=1;shadow=0;" vertex="1" connectable="0" parent="ZX3n14dEDowEOb79098K-15">
          <mxGeometry width="30" height="26" as="geometry" />
        </mxCell>
        <mxCell id="ZX3n14dEDowEOb79098K-17" value="ДатаНачалаЗаказа" style="shape=partialRectangle;top=0;left=0;right=0;bottom=0;html=1;align=left;verticalAlign=top;fillColor=none;spacingLeft=34;spacingRight=4;whiteSpace=wrap;overflow=hidden;rotatable=0;points=[[0,0.5],[1,0.5]];portConstraint=eastwest;dropTarget=0;swimlaneLine=1;shadow=0;" vertex="1" parent="ZX3n14dEDowEOb79098K-10">
          <mxGeometry y="108" width="160" height="26" as="geometry" />
        </mxCell>
        <mxCell id="ZX3n14dEDowEOb79098K-18" value="" style="shape=partialRectangle;top=0;left=0;bottom=0;html=1;fillColor=none;align=left;verticalAlign=top;spacingLeft=4;spacingRight=4;whiteSpace=wrap;overflow=hidden;rotatable=0;points=[];portConstraint=eastwest;part=1;swimlaneLine=1;shadow=0;" vertex="1" connectable="0" parent="ZX3n14dEDowEOb79098K-17">
          <mxGeometry width="30" height="26" as="geometry" />
        </mxCell>
        <mxCell id="ZX3n14dEDowEOb79098K-19" value="Сумма" style="shape=partialRectangle;top=0;left=0;right=0;bottom=0;html=1;align=left;verticalAlign=top;fillColor=none;spacingLeft=34;spacingRight=4;whiteSpace=wrap;overflow=hidden;rotatable=0;points=[[0,0.5],[1,0.5]];portConstraint=eastwest;dropTarget=0;swimlaneLine=1;shadow=0;" vertex="1" parent="ZX3n14dEDowEOb79098K-10">
          <mxGeometry y="134" width="160" height="26" as="geometry" />
        </mxCell>
        <mxCell id="ZX3n14dEDowEOb79098K-20" value="" style="shape=partialRectangle;top=0;left=0;bottom=0;html=1;fillColor=none;align=left;verticalAlign=top;spacingLeft=4;spacingRight=4;whiteSpace=wrap;overflow=hidden;rotatable=0;points=[];portConstraint=eastwest;part=1;swimlaneLine=1;shadow=0;" vertex="1" connectable="0" parent="ZX3n14dEDowEOb79098K-19">
          <mxGeometry width="30" height="26" as="geometry" />
        </mxCell>
        <mxCell id="ZX3n14dEDowEOb79098K-21" value="Статус" style="shape=partialRectangle;top=0;left=0;right=0;bottom=0;html=1;align=left;verticalAlign=top;fillColor=none;spacingLeft=34;spacingRight=4;whiteSpace=wrap;overflow=hidden;rotatable=0;points=[[0,0.5],[1,0.5]];portConstraint=eastwest;dropTarget=0;swimlaneLine=1;shadow=0;" vertex="1" parent="ZX3n14dEDowEOb79098K-10">
          <mxGeometry y="160" width="160" height="26" as="geometry" />
        </mxCell>
        <mxCell id="ZX3n14dEDowEOb79098K-22" value="" style="shape=partialRectangle;top=0;left=0;bottom=0;html=1;fillColor=none;align=left;verticalAlign=top;spacingLeft=4;spacingRight=4;whiteSpace=wrap;overflow=hidden;rotatable=0;points=[];portConstraint=eastwest;part=1;swimlaneLine=1;shadow=0;" vertex="1" connectable="0" parent="ZX3n14dEDowEOb79098K-21">
          <mxGeometry width="30" height="26" as="geometry" />
        </mxCell>
        <mxCell id="ZX3n14dEDowEOb79098K-23" value="Услуги" style="swimlane;html=1;fontStyle=0;childLayout=stackLayout;horizontal=1;startSize=26;fillColor=#e0e0e0;horizontalStack=0;resizeParent=1;resizeLast=0;collapsible=1;marginBottom=0;swimlaneFillColor=#ffffff;align=center;rounded=0;shadow=0;comic=0;labelBackgroundColor=none;strokeWidth=1;fontFamily=Verdana;fontSize=14;swimlaneLine=1;" vertex="1" parent="1">
          <mxGeometry x="880" y="120" width="160" height="134" as="geometry">
            <mxRectangle x="500" y="140" width="90" height="30" as="alternateBounds" />
          </mxGeometry>
        </mxCell>
        <mxCell id="ZX3n14dEDowEOb79098K-24" value="ID" style="shape=partialRectangle;top=0;left=0;right=0;bottom=1;html=1;align=left;verticalAlign=middle;fillColor=none;spacingLeft=34;spacingRight=4;whiteSpace=wrap;overflow=hidden;rotatable=0;points=[[0,0.5],[1,0.5]];portConstraint=eastwest;dropTarget=0;fontStyle=5;swimlaneLine=1;shadow=0;" vertex="1" parent="ZX3n14dEDowEOb79098K-23">
          <mxGeometry y="26" width="160" height="30" as="geometry" />
        </mxCell>
        <mxCell id="ZX3n14dEDowEOb79098K-25" value="PK" style="shape=partialRectangle;top=0;left=0;bottom=0;html=1;fillColor=none;align=left;verticalAlign=middle;spacingLeft=4;spacingRight=4;whiteSpace=wrap;overflow=hidden;rotatable=0;points=[];portConstraint=eastwest;part=1;swimlaneLine=1;shadow=0;" vertex="1" connectable="0" parent="ZX3n14dEDowEOb79098K-24">
          <mxGeometry width="30" height="30" as="geometry" />
        </mxCell>
        <mxCell id="ZX3n14dEDowEOb79098K-26" value="Название" style="shape=partialRectangle;top=0;left=0;right=0;bottom=0;html=1;align=left;verticalAlign=top;fillColor=none;spacingLeft=34;spacingRight=4;whiteSpace=wrap;overflow=hidden;rotatable=0;points=[[0,0.5],[1,0.5]];portConstraint=eastwest;dropTarget=0;swimlaneLine=1;shadow=0;" vertex="1" parent="ZX3n14dEDowEOb79098K-23">
          <mxGeometry y="56" width="160" height="26" as="geometry" />
        </mxCell>
        <mxCell id="ZX3n14dEDowEOb79098K-27" value="" style="shape=partialRectangle;top=0;left=0;bottom=0;html=1;fillColor=none;align=left;verticalAlign=top;spacingLeft=4;spacingRight=4;whiteSpace=wrap;overflow=hidden;rotatable=0;points=[];portConstraint=eastwest;part=1;swimlaneLine=1;shadow=0;" vertex="1" connectable="0" parent="ZX3n14dEDowEOb79098K-26">
          <mxGeometry width="30" height="26" as="geometry" />
        </mxCell>
        <mxCell id="ZX3n14dEDowEOb79098K-28" value="МинСтоимость" style="shape=partialRectangle;top=0;left=0;right=0;bottom=0;html=1;align=left;verticalAlign=top;fillColor=none;spacingLeft=34;spacingRight=4;whiteSpace=wrap;overflow=hidden;rotatable=0;points=[[0,0.5],[1,0.5]];portConstraint=eastwest;dropTarget=0;swimlaneLine=1;shadow=0;" vertex="1" parent="ZX3n14dEDowEOb79098K-23">
          <mxGeometry y="82" width="160" height="26" as="geometry" />
        </mxCell>
        <mxCell id="ZX3n14dEDowEOb79098K-29" value="" style="shape=partialRectangle;top=0;left=0;bottom=0;html=1;fillColor=none;align=left;verticalAlign=top;spacingLeft=4;spacingRight=4;whiteSpace=wrap;overflow=hidden;rotatable=0;points=[];portConstraint=eastwest;part=1;swimlaneLine=1;shadow=0;" vertex="1" connectable="0" parent="ZX3n14dEDowEOb79098K-28">
          <mxGeometry width="30" height="26" as="geometry" />
        </mxCell>
        <mxCell id="ZX3n14dEDowEOb79098K-30" value="МинДлительность" style="shape=partialRectangle;top=0;left=0;right=0;bottom=0;html=1;align=left;verticalAlign=top;fillColor=none;spacingLeft=34;spacingRight=4;whiteSpace=wrap;overflow=hidden;rotatable=0;points=[[0,0.5],[1,0.5]];portConstraint=eastwest;dropTarget=0;swimlaneLine=1;shadow=0;" vertex="1" parent="ZX3n14dEDowEOb79098K-23">
          <mxGeometry y="108" width="160" height="26" as="geometry" />
        </mxCell>
        <mxCell id="ZX3n14dEDowEOb79098K-31" value="" style="shape=partialRectangle;top=0;left=0;bottom=0;html=1;fillColor=none;align=left;verticalAlign=top;spacingLeft=4;spacingRight=4;whiteSpace=wrap;overflow=hidden;rotatable=0;points=[];portConstraint=eastwest;part=1;swimlaneLine=1;shadow=0;" vertex="1" connectable="0" parent="ZX3n14dEDowEOb79098K-30">
          <mxGeometry width="30" height="26" as="geometry" />
        </mxCell>
        <mxCell id="ZX3n14dEDowEOb79098K-32" value="" style="edgeStyle=orthogonalEdgeStyle;fontSize=12;html=1;endArrow=ERmany;rounded=0;exitX=1;exitY=0.5;exitDx=0;exitDy=0;entryX=0;entryY=0.5;entryDx=0;entryDy=0;swimlaneLine=1;shadow=0;" edge="1" parent="1" source="ZX3n14dEDowEOb79098K-2" target="ZX3n14dEDowEOb79098K-15">
          <mxGeometry width="100" height="100" relative="1" as="geometry">
            <mxPoint x="274" y="200" as="sourcePoint" />
            <mxPoint x="374" y="100" as="targetPoint" />
          </mxGeometry>
        </mxCell>
        <mxCell id="ZX3n14dEDowEOb79098K-33" value="Замер" style="swimlane;html=1;fontStyle=0;childLayout=stackLayout;horizontal=1;startSize=26;fillColor=#e0e0e0;horizontalStack=0;resizeParent=1;resizeLast=0;collapsible=1;marginBottom=0;swimlaneFillColor=#ffffff;align=center;rounded=0;shadow=0;comic=0;labelBackgroundColor=none;strokeWidth=1;fontFamily=Verdana;fontSize=14;swimlaneLine=1;" vertex="1" parent="1">
          <mxGeometry x="80" y="80" width="160" height="134" as="geometry">
            <mxRectangle x="500" y="140" width="90" height="30" as="alternateBounds" />
          </mxGeometry>
        </mxCell>
        <mxCell id="ZX3n14dEDowEOb79098K-34" value="ID" style="shape=partialRectangle;top=0;left=0;right=0;bottom=1;html=1;align=left;verticalAlign=middle;fillColor=none;spacingLeft=34;spacingRight=4;whiteSpace=wrap;overflow=hidden;rotatable=0;points=[[0,0.5],[1,0.5]];portConstraint=eastwest;dropTarget=0;fontStyle=5;swimlaneLine=1;shadow=0;" vertex="1" parent="ZX3n14dEDowEOb79098K-33">
          <mxGeometry y="26" width="160" height="30" as="geometry" />
        </mxCell>
        <mxCell id="ZX3n14dEDowEOb79098K-35" value="PK" style="shape=partialRectangle;top=0;left=0;bottom=0;html=1;fillColor=none;align=left;verticalAlign=middle;spacingLeft=4;spacingRight=4;whiteSpace=wrap;overflow=hidden;rotatable=0;points=[];portConstraint=eastwest;part=1;swimlaneLine=1;shadow=0;" vertex="1" connectable="0" parent="ZX3n14dEDowEOb79098K-34">
          <mxGeometry width="30" height="30" as="geometry" />
        </mxCell>
        <mxCell id="ZX3n14dEDowEOb79098K-36" value="IDТип" style="shape=partialRectangle;top=0;left=0;right=0;bottom=0;html=1;align=left;verticalAlign=top;fillColor=none;spacingLeft=34;spacingRight=4;whiteSpace=wrap;overflow=hidden;rotatable=0;points=[[0,0.5],[1,0.5]];portConstraint=eastwest;dropTarget=0;swimlaneLine=1;shadow=0;" vertex="1" parent="ZX3n14dEDowEOb79098K-33">
          <mxGeometry y="56" width="160" height="26" as="geometry" />
        </mxCell>
        <mxCell id="ZX3n14dEDowEOb79098K-37" value="" style="shape=partialRectangle;top=0;left=0;bottom=0;html=1;fillColor=none;align=left;verticalAlign=top;spacingLeft=4;spacingRight=4;whiteSpace=wrap;overflow=hidden;rotatable=0;points=[];portConstraint=eastwest;part=1;swimlaneLine=1;shadow=0;" vertex="1" connectable="0" parent="ZX3n14dEDowEOb79098K-36">
          <mxGeometry width="30" height="26" as="geometry" />
        </mxCell>
        <mxCell id="ZX3n14dEDowEOb79098K-38" value="Значение" style="shape=partialRectangle;top=0;left=0;right=0;bottom=0;html=1;align=left;verticalAlign=top;fillColor=none;spacingLeft=34;spacingRight=4;whiteSpace=wrap;overflow=hidden;rotatable=0;points=[[0,0.5],[1,0.5]];portConstraint=eastwest;dropTarget=0;swimlaneLine=1;shadow=0;" vertex="1" parent="ZX3n14dEDowEOb79098K-33">
          <mxGeometry y="82" width="160" height="26" as="geometry" />
        </mxCell>
        <mxCell id="ZX3n14dEDowEOb79098K-39" value="" style="shape=partialRectangle;top=0;left=0;bottom=0;html=1;fillColor=none;align=left;verticalAlign=top;spacingLeft=4;spacingRight=4;whiteSpace=wrap;overflow=hidden;rotatable=0;points=[];portConstraint=eastwest;part=1;swimlaneLine=1;shadow=0;" vertex="1" connectable="0" parent="ZX3n14dEDowEOb79098K-38">
          <mxGeometry width="30" height="26" as="geometry" />
        </mxCell>
        <mxCell id="ZX3n14dEDowEOb79098K-40" value="IDЗаказа" style="shape=partialRectangle;top=0;left=0;right=0;bottom=0;html=1;align=left;verticalAlign=top;fillColor=none;spacingLeft=34;spacingRight=4;whiteSpace=wrap;overflow=hidden;rotatable=0;points=[[0,0.5],[1,0.5]];portConstraint=eastwest;dropTarget=0;swimlaneLine=1;shadow=0;" vertex="1" parent="ZX3n14dEDowEOb79098K-33">
          <mxGeometry y="108" width="160" height="26" as="geometry" />
        </mxCell>
        <mxCell id="ZX3n14dEDowEOb79098K-41" value="" style="shape=partialRectangle;top=0;left=0;bottom=0;html=1;fillColor=none;align=left;verticalAlign=top;spacingLeft=4;spacingRight=4;whiteSpace=wrap;overflow=hidden;rotatable=0;points=[];portConstraint=eastwest;part=1;swimlaneLine=1;shadow=0;" vertex="1" connectable="0" parent="ZX3n14dEDowEOb79098K-40">
          <mxGeometry width="30" height="26" as="geometry" />
        </mxCell>
        <mxCell id="ZX3n14dEDowEOb79098K-42" value="ТипЗамера" style="swimlane;html=1;fontStyle=0;childLayout=stackLayout;horizontal=1;startSize=26;fillColor=#e0e0e0;horizontalStack=0;resizeParent=1;resizeLast=0;collapsible=1;marginBottom=0;swimlaneFillColor=#ffffff;align=center;rounded=0;shadow=0;comic=0;labelBackgroundColor=none;strokeWidth=1;fontFamily=Verdana;fontSize=14;swimlaneLine=1;" vertex="1" parent="1">
          <mxGeometry x="-160" y="80" width="160" height="82" as="geometry">
            <mxRectangle x="500" y="140" width="90" height="30" as="alternateBounds" />
          </mxGeometry>
        </mxCell>
        <mxCell id="ZX3n14dEDowEOb79098K-43" value="ID" style="shape=partialRectangle;top=0;left=0;right=0;bottom=1;html=1;align=left;verticalAlign=middle;fillColor=none;spacingLeft=34;spacingRight=4;whiteSpace=wrap;overflow=hidden;rotatable=0;points=[[0,0.5],[1,0.5]];portConstraint=eastwest;dropTarget=0;fontStyle=5;swimlaneLine=1;shadow=0;" vertex="1" parent="ZX3n14dEDowEOb79098K-42">
          <mxGeometry y="26" width="160" height="30" as="geometry" />
        </mxCell>
        <mxCell id="ZX3n14dEDowEOb79098K-44" value="PK" style="shape=partialRectangle;top=0;left=0;bottom=0;html=1;fillColor=none;align=left;verticalAlign=middle;spacingLeft=4;spacingRight=4;whiteSpace=wrap;overflow=hidden;rotatable=0;points=[];portConstraint=eastwest;part=1;swimlaneLine=1;shadow=0;" vertex="1" connectable="0" parent="ZX3n14dEDowEOb79098K-43">
          <mxGeometry width="30" height="30" as="geometry" />
        </mxCell>
        <mxCell id="ZX3n14dEDowEOb79098K-45" value="name" style="shape=partialRectangle;top=0;left=0;right=0;bottom=0;html=1;align=left;verticalAlign=top;fillColor=none;spacingLeft=34;spacingRight=4;whiteSpace=wrap;overflow=hidden;rotatable=0;points=[[0,0.5],[1,0.5]];portConstraint=eastwest;dropTarget=0;swimlaneLine=1;shadow=0;" vertex="1" parent="ZX3n14dEDowEOb79098K-42">
          <mxGeometry y="56" width="160" height="26" as="geometry" />
        </mxCell>
        <mxCell id="ZX3n14dEDowEOb79098K-46" value="" style="shape=partialRectangle;top=0;left=0;bottom=0;html=1;fillColor=none;align=left;verticalAlign=top;spacingLeft=4;spacingRight=4;whiteSpace=wrap;overflow=hidden;rotatable=0;points=[];portConstraint=eastwest;part=1;swimlaneLine=1;shadow=0;" vertex="1" connectable="0" parent="ZX3n14dEDowEOb79098K-45">
          <mxGeometry width="30" height="26" as="geometry" />
        </mxCell>
        <mxCell id="ZX3n14dEDowEOb79098K-47" style="edgeStyle=orthogonalEdgeStyle;rounded=0;orthogonalLoop=1;jettySize=auto;html=1;entryX=0;entryY=0.5;entryDx=0;entryDy=0;endArrow=ERmany;endFill=0;swimlaneLine=1;shadow=0;" edge="1" parent="1" source="ZX3n14dEDowEOb79098K-43" target="ZX3n14dEDowEOb79098K-36">
          <mxGeometry relative="1" as="geometry" />
        </mxCell>
        <mxCell id="ZX3n14dEDowEOb79098K-48" style="edgeStyle=orthogonalEdgeStyle;rounded=0;orthogonalLoop=1;jettySize=auto;html=1;entryX=1;entryY=0.5;entryDx=0;entryDy=0;endArrow=ERmany;endFill=0;swimlaneLine=1;shadow=0;" edge="1" parent="1" source="ZX3n14dEDowEOb79098K-11" target="ZX3n14dEDowEOb79098K-40">
          <mxGeometry relative="1" as="geometry" />
        </mxCell>
        <mxCell id="ZX3n14dEDowEOb79098K-49" value="УслугаЗаказ" style="swimlane;html=1;fontStyle=0;childLayout=stackLayout;horizontal=1;startSize=26;fillColor=#e0e0e0;horizontalStack=0;resizeParent=1;resizeLast=0;collapsible=1;marginBottom=0;swimlaneFillColor=#ffffff;align=center;rounded=0;shadow=0;comic=0;labelBackgroundColor=none;strokeWidth=1;fontFamily=Verdana;fontSize=14;swimlaneLine=1;" vertex="1" parent="1">
          <mxGeometry x="640" y="120" width="160" height="134" as="geometry">
            <mxRectangle x="500" y="140" width="90" height="30" as="alternateBounds" />
          </mxGeometry>
        </mxCell>
        <mxCell id="ZX3n14dEDowEOb79098K-50" value="ID" style="shape=partialRectangle;top=0;left=0;right=0;bottom=1;html=1;align=left;verticalAlign=middle;fillColor=none;spacingLeft=34;spacingRight=4;whiteSpace=wrap;overflow=hidden;rotatable=0;points=[[0,0.5],[1,0.5]];portConstraint=eastwest;dropTarget=0;fontStyle=5;swimlaneLine=1;shadow=0;" vertex="1" parent="ZX3n14dEDowEOb79098K-49">
          <mxGeometry y="26" width="160" height="30" as="geometry" />
        </mxCell>
        <mxCell id="ZX3n14dEDowEOb79098K-51" value="PK" style="shape=partialRectangle;top=0;left=0;bottom=0;html=1;fillColor=none;align=left;verticalAlign=middle;spacingLeft=4;spacingRight=4;whiteSpace=wrap;overflow=hidden;rotatable=0;points=[];portConstraint=eastwest;part=1;swimlaneLine=1;shadow=0;" vertex="1" connectable="0" parent="ZX3n14dEDowEOb79098K-50">
          <mxGeometry width="30" height="30" as="geometry" />
        </mxCell>
        <mxCell id="ZX3n14dEDowEOb79098K-52" value="IDЗаказа" style="shape=partialRectangle;top=0;left=0;right=0;bottom=0;html=1;align=left;verticalAlign=top;fillColor=none;spacingLeft=34;spacingRight=4;whiteSpace=wrap;overflow=hidden;rotatable=0;points=[[0,0.5],[1,0.5]];portConstraint=eastwest;dropTarget=0;swimlaneLine=1;shadow=0;" vertex="1" parent="ZX3n14dEDowEOb79098K-49">
          <mxGeometry y="56" width="160" height="26" as="geometry" />
        </mxCell>
        <mxCell id="ZX3n14dEDowEOb79098K-53" value="" style="shape=partialRectangle;top=0;left=0;bottom=0;html=1;fillColor=none;align=left;verticalAlign=top;spacingLeft=4;spacingRight=4;whiteSpace=wrap;overflow=hidden;rotatable=0;points=[];portConstraint=eastwest;part=1;swimlaneLine=1;shadow=0;" vertex="1" connectable="0" parent="ZX3n14dEDowEOb79098K-52">
          <mxGeometry width="30" height="26" as="geometry" />
        </mxCell>
        <mxCell id="ZX3n14dEDowEOb79098K-54" value="IDУслуги" style="shape=partialRectangle;top=0;left=0;right=0;bottom=0;html=1;align=left;verticalAlign=top;fillColor=none;spacingLeft=34;spacingRight=4;whiteSpace=wrap;overflow=hidden;rotatable=0;points=[[0,0.5],[1,0.5]];portConstraint=eastwest;dropTarget=0;swimlaneLine=1;shadow=0;" vertex="1" parent="ZX3n14dEDowEOb79098K-49">
          <mxGeometry y="82" width="160" height="26" as="geometry" />
        </mxCell>
        <mxCell id="ZX3n14dEDowEOb79098K-55" value="" style="shape=partialRectangle;top=0;left=0;bottom=0;html=1;fillColor=none;align=left;verticalAlign=top;spacingLeft=4;spacingRight=4;whiteSpace=wrap;overflow=hidden;rotatable=0;points=[];portConstraint=eastwest;part=1;swimlaneLine=1;shadow=0;" vertex="1" connectable="0" parent="ZX3n14dEDowEOb79098K-54">
          <mxGeometry width="30" height="26" as="geometry" />
        </mxCell>
        <mxCell id="ZX3n14dEDowEOb79098K-56" value="Комментарий" style="shape=partialRectangle;top=0;left=0;right=0;bottom=0;html=1;align=left;verticalAlign=top;fillColor=none;spacingLeft=34;spacingRight=4;whiteSpace=wrap;overflow=hidden;rotatable=0;points=[[0,0.5],[1,0.5]];portConstraint=eastwest;dropTarget=0;swimlaneLine=1;shadow=0;" vertex="1" parent="ZX3n14dEDowEOb79098K-49">
          <mxGeometry y="108" width="160" height="26" as="geometry" />
        </mxCell>
        <mxCell id="ZX3n14dEDowEOb79098K-57" value="" style="shape=partialRectangle;top=0;left=0;bottom=0;html=1;fillColor=none;align=left;verticalAlign=top;spacingLeft=4;spacingRight=4;whiteSpace=wrap;overflow=hidden;rotatable=0;points=[];portConstraint=eastwest;part=1;swimlaneLine=1;shadow=0;" vertex="1" connectable="0" parent="ZX3n14dEDowEOb79098K-56">
          <mxGeometry width="30" height="26" as="geometry" />
        </mxCell>
        <mxCell id="ZX3n14dEDowEOb79098K-58" style="edgeStyle=orthogonalEdgeStyle;rounded=0;orthogonalLoop=1;jettySize=auto;html=1;entryX=1;entryY=0.5;entryDx=0;entryDy=0;endArrow=ERmany;endFill=0;swimlaneLine=1;shadow=0;" edge="1" parent="1" source="ZX3n14dEDowEOb79098K-24" target="ZX3n14dEDowEOb79098K-54">
          <mxGeometry relative="1" as="geometry" />
        </mxCell>
        <mxCell id="ZX3n14dEDowEOb79098K-59" style="edgeStyle=orthogonalEdgeStyle;rounded=0;orthogonalLoop=1;jettySize=auto;html=1;entryX=0;entryY=0.5;entryDx=0;entryDy=0;endArrow=ERmany;endFill=0;swimlaneLine=1;shadow=0;" edge="1" parent="1" source="ZX3n14dEDowEOb79098K-11" target="ZX3n14dEDowEOb79098K-52">
          <mxGeometry relative="1" as="geometry" />
        </mxCell>
        <mxCell id="ZX3n14dEDowEOb79098K-60" value="Master" style="swimlane;html=1;fontStyle=0;childLayout=stackLayout;horizontal=1;startSize=26;fillColor=#e0e0e0;horizontalStack=0;resizeParent=1;resizeLast=0;collapsible=1;marginBottom=0;swimlaneFillColor=#ffffff;align=center;rounded=0;shadow=0;comic=0;labelBackgroundColor=none;strokeWidth=1;fontFamily=Verdana;fontSize=14;swimlaneLine=1;" vertex="1" parent="1">
          <mxGeometry x="80" y="960" width="160" height="134" as="geometry">
            <mxRectangle x="500" y="140" width="90" height="30" as="alternateBounds" />
          </mxGeometry>
        </mxCell>
        <mxCell id="ZX3n14dEDowEOb79098K-61" value="ID" style="shape=partialRectangle;top=0;left=0;right=0;bottom=1;html=1;align=left;verticalAlign=middle;fillColor=none;spacingLeft=34;spacingRight=4;whiteSpace=wrap;overflow=hidden;rotatable=0;points=[[0,0.5],[1,0.5]];portConstraint=eastwest;dropTarget=0;fontStyle=5;swimlaneLine=1;shadow=0;" vertex="1" parent="ZX3n14dEDowEOb79098K-60">
          <mxGeometry y="26" width="160" height="30" as="geometry" />
        </mxCell>
        <mxCell id="ZX3n14dEDowEOb79098K-62" value="PK" style="shape=partialRectangle;top=0;left=0;bottom=0;html=1;fillColor=none;align=left;verticalAlign=middle;spacingLeft=4;spacingRight=4;whiteSpace=wrap;overflow=hidden;rotatable=0;points=[];portConstraint=eastwest;part=1;swimlaneLine=1;shadow=0;" vertex="1" connectable="0" parent="ZX3n14dEDowEOb79098K-61">
          <mxGeometry width="30" height="30" as="geometry" />
        </mxCell>
        <mxCell id="ZX3n14dEDowEOb79098K-63" value="Phone" style="shape=partialRectangle;top=0;left=0;right=0;bottom=0;html=1;align=left;verticalAlign=top;fillColor=none;spacingLeft=34;spacingRight=4;whiteSpace=wrap;overflow=hidden;rotatable=0;points=[[0,0.5],[1,0.5]];portConstraint=eastwest;dropTarget=0;swimlaneLine=1;shadow=0;" vertex="1" parent="ZX3n14dEDowEOb79098K-60">
          <mxGeometry y="56" width="160" height="26" as="geometry" />
        </mxCell>
        <mxCell id="ZX3n14dEDowEOb79098K-64" value="" style="shape=partialRectangle;top=0;left=0;bottom=0;html=1;fillColor=none;align=left;verticalAlign=top;spacingLeft=4;spacingRight=4;whiteSpace=wrap;overflow=hidden;rotatable=0;points=[];portConstraint=eastwest;part=1;swimlaneLine=1;shadow=0;" vertex="1" connectable="0" parent="ZX3n14dEDowEOb79098K-63">
          <mxGeometry width="30" height="26" as="geometry" />
        </mxCell>
        <mxCell id="ZX3n14dEDowEOb79098K-65" value="Surname" style="shape=partialRectangle;top=0;left=0;right=0;bottom=0;html=1;align=left;verticalAlign=top;fillColor=none;spacingLeft=34;spacingRight=4;whiteSpace=wrap;overflow=hidden;rotatable=0;points=[[0,0.5],[1,0.5]];portConstraint=eastwest;dropTarget=0;swimlaneLine=1;shadow=0;" vertex="1" parent="ZX3n14dEDowEOb79098K-60">
          <mxGeometry y="82" width="160" height="26" as="geometry" />
        </mxCell>
        <mxCell id="ZX3n14dEDowEOb79098K-66" value="" style="shape=partialRectangle;top=0;left=0;bottom=0;html=1;fillColor=none;align=left;verticalAlign=top;spacingLeft=4;spacingRight=4;whiteSpace=wrap;overflow=hidden;rotatable=0;points=[];portConstraint=eastwest;part=1;swimlaneLine=1;shadow=0;" vertex="1" connectable="0" parent="ZX3n14dEDowEOb79098K-65">
          <mxGeometry width="30" height="26" as="geometry" />
        </mxCell>
        <mxCell id="ZX3n14dEDowEOb79098K-67" value="Name" style="shape=partialRectangle;top=0;left=0;right=0;bottom=0;html=1;align=left;verticalAlign=top;fillColor=none;spacingLeft=34;spacingRight=4;whiteSpace=wrap;overflow=hidden;rotatable=0;points=[[0,0.5],[1,0.5]];portConstraint=eastwest;dropTarget=0;swimlaneLine=1;shadow=0;" vertex="1" parent="ZX3n14dEDowEOb79098K-60">
          <mxGeometry y="108" width="160" height="26" as="geometry" />
        </mxCell>
        <mxCell id="ZX3n14dEDowEOb79098K-68" value="" style="shape=partialRectangle;top=0;left=0;bottom=0;html=1;fillColor=none;align=left;verticalAlign=top;spacingLeft=4;spacingRight=4;whiteSpace=wrap;overflow=hidden;rotatable=0;points=[];portConstraint=eastwest;part=1;swimlaneLine=1;shadow=0;" vertex="1" connectable="0" parent="ZX3n14dEDowEOb79098K-67">
          <mxGeometry width="30" height="26" as="geometry" />
        </mxCell>
        <mxCell id="ZX3n14dEDowEOb79098K-69" value="Order" style="swimlane;html=1;fontStyle=0;childLayout=stackLayout;horizontal=1;startSize=26;fillColor=#e0e0e0;horizontalStack=0;resizeParent=1;resizeLast=0;collapsible=1;marginBottom=0;swimlaneFillColor=#ffffff;align=center;rounded=0;shadow=0;comic=0;labelBackgroundColor=none;strokeWidth=1;fontFamily=Verdana;fontSize=14;swimlaneLine=1;" vertex="1" parent="1">
          <mxGeometry x="360" y="800" width="160" height="186" as="geometry">
            <mxRectangle x="500" y="140" width="90" height="30" as="alternateBounds" />
          </mxGeometry>
        </mxCell>
        <mxCell id="ZX3n14dEDowEOb79098K-70" value="ID" style="shape=partialRectangle;top=0;left=0;right=0;bottom=1;html=1;align=left;verticalAlign=middle;fillColor=none;spacingLeft=34;spacingRight=4;whiteSpace=wrap;overflow=hidden;rotatable=0;points=[[0,0.5],[1,0.5]];portConstraint=eastwest;dropTarget=0;fontStyle=5;swimlaneLine=1;shadow=0;" vertex="1" parent="ZX3n14dEDowEOb79098K-69">
          <mxGeometry y="26" width="160" height="30" as="geometry" />
        </mxCell>
        <mxCell id="ZX3n14dEDowEOb79098K-71" value="PK" style="shape=partialRectangle;top=0;left=0;bottom=0;html=1;fillColor=none;align=left;verticalAlign=middle;spacingLeft=4;spacingRight=4;whiteSpace=wrap;overflow=hidden;rotatable=0;points=[];portConstraint=eastwest;part=1;swimlaneLine=1;shadow=0;" vertex="1" connectable="0" parent="ZX3n14dEDowEOb79098K-70">
          <mxGeometry width="30" height="30" as="geometry" />
        </mxCell>
        <mxCell id="ZX3n14dEDowEOb79098K-72" value="ClientPhone" style="shape=partialRectangle;top=0;left=0;right=0;bottom=0;html=1;align=left;verticalAlign=top;fillColor=none;spacingLeft=34;spacingRight=4;whiteSpace=wrap;overflow=hidden;rotatable=0;points=[[0,0.5],[1,0.5]];portConstraint=eastwest;dropTarget=0;swimlaneLine=1;shadow=0;" vertex="1" parent="ZX3n14dEDowEOb79098K-69">
          <mxGeometry y="56" width="160" height="26" as="geometry" />
        </mxCell>
        <mxCell id="ZX3n14dEDowEOb79098K-73" value="" style="shape=partialRectangle;top=0;left=0;bottom=0;html=1;fillColor=none;align=left;verticalAlign=top;spacingLeft=4;spacingRight=4;whiteSpace=wrap;overflow=hidden;rotatable=0;points=[];portConstraint=eastwest;part=1;swimlaneLine=1;shadow=0;" vertex="1" connectable="0" parent="ZX3n14dEDowEOb79098K-72">
          <mxGeometry width="30" height="26" as="geometry" />
        </mxCell>
        <mxCell id="ZX3n14dEDowEOb79098K-74" value="IDMaster" style="shape=partialRectangle;top=0;left=0;right=0;bottom=0;html=1;align=left;verticalAlign=top;fillColor=none;spacingLeft=34;spacingRight=4;whiteSpace=wrap;overflow=hidden;rotatable=0;points=[[0,0.5],[1,0.5]];portConstraint=eastwest;dropTarget=0;swimlaneLine=1;shadow=0;" vertex="1" parent="ZX3n14dEDowEOb79098K-69">
          <mxGeometry y="82" width="160" height="26" as="geometry" />
        </mxCell>
        <mxCell id="ZX3n14dEDowEOb79098K-75" value="" style="shape=partialRectangle;top=0;left=0;bottom=0;html=1;fillColor=none;align=left;verticalAlign=top;spacingLeft=4;spacingRight=4;whiteSpace=wrap;overflow=hidden;rotatable=0;points=[];portConstraint=eastwest;part=1;swimlaneLine=1;shadow=0;" vertex="1" connectable="0" parent="ZX3n14dEDowEOb79098K-74">
          <mxGeometry width="30" height="26" as="geometry" />
        </mxCell>
        <mxCell id="ZX3n14dEDowEOb79098K-76" value="StartDateTime" style="shape=partialRectangle;top=0;left=0;right=0;bottom=0;html=1;align=left;verticalAlign=top;fillColor=none;spacingLeft=34;spacingRight=4;whiteSpace=wrap;overflow=hidden;rotatable=0;points=[[0,0.5],[1,0.5]];portConstraint=eastwest;dropTarget=0;swimlaneLine=1;shadow=0;" vertex="1" parent="ZX3n14dEDowEOb79098K-69">
          <mxGeometry y="108" width="160" height="26" as="geometry" />
        </mxCell>
        <mxCell id="ZX3n14dEDowEOb79098K-77" value="" style="shape=partialRectangle;top=0;left=0;bottom=0;html=1;fillColor=none;align=left;verticalAlign=top;spacingLeft=4;spacingRight=4;whiteSpace=wrap;overflow=hidden;rotatable=0;points=[];portConstraint=eastwest;part=1;swimlaneLine=1;shadow=0;" vertex="1" connectable="0" parent="ZX3n14dEDowEOb79098K-76">
          <mxGeometry width="30" height="26" as="geometry" />
        </mxCell>
        <mxCell id="ZX3n14dEDowEOb79098K-78" value="Sum" style="shape=partialRectangle;top=0;left=0;right=0;bottom=0;html=1;align=left;verticalAlign=top;fillColor=none;spacingLeft=34;spacingRight=4;whiteSpace=wrap;overflow=hidden;rotatable=0;points=[[0,0.5],[1,0.5]];portConstraint=eastwest;dropTarget=0;swimlaneLine=1;shadow=0;" vertex="1" parent="ZX3n14dEDowEOb79098K-69">
          <mxGeometry y="134" width="160" height="26" as="geometry" />
        </mxCell>
        <mxCell id="ZX3n14dEDowEOb79098K-79" value="" style="shape=partialRectangle;top=0;left=0;bottom=0;html=1;fillColor=none;align=left;verticalAlign=top;spacingLeft=4;spacingRight=4;whiteSpace=wrap;overflow=hidden;rotatable=0;points=[];portConstraint=eastwest;part=1;swimlaneLine=1;shadow=0;" vertex="1" connectable="0" parent="ZX3n14dEDowEOb79098K-78">
          <mxGeometry width="30" height="26" as="geometry" />
        </mxCell>
        <mxCell id="ZX3n14dEDowEOb79098K-80" value="Status" style="shape=partialRectangle;top=0;left=0;right=0;bottom=0;html=1;align=left;verticalAlign=top;fillColor=none;spacingLeft=34;spacingRight=4;whiteSpace=wrap;overflow=hidden;rotatable=0;points=[[0,0.5],[1,0.5]];portConstraint=eastwest;dropTarget=0;swimlaneLine=1;shadow=0;" vertex="1" parent="ZX3n14dEDowEOb79098K-69">
          <mxGeometry y="160" width="160" height="26" as="geometry" />
        </mxCell>
        <mxCell id="ZX3n14dEDowEOb79098K-81" value="" style="shape=partialRectangle;top=0;left=0;bottom=0;html=1;fillColor=none;align=left;verticalAlign=top;spacingLeft=4;spacingRight=4;whiteSpace=wrap;overflow=hidden;rotatable=0;points=[];portConstraint=eastwest;part=1;swimlaneLine=1;shadow=0;" vertex="1" connectable="0" parent="ZX3n14dEDowEOb79098K-80">
          <mxGeometry width="30" height="26" as="geometry" />
        </mxCell>
        <mxCell id="ZX3n14dEDowEOb79098K-82" value="Service" style="swimlane;html=1;fontStyle=0;childLayout=stackLayout;horizontal=1;startSize=26;fillColor=#e0e0e0;horizontalStack=0;resizeParent=1;resizeLast=0;collapsible=1;marginBottom=0;swimlaneFillColor=#ffffff;align=center;rounded=0;shadow=0;comic=0;labelBackgroundColor=none;strokeWidth=1;fontFamily=Verdana;fontSize=14;swimlaneLine=1;" vertex="1" parent="1">
          <mxGeometry x="880" y="800" width="160" height="134" as="geometry">
            <mxRectangle x="500" y="140" width="90" height="30" as="alternateBounds" />
          </mxGeometry>
        </mxCell>
        <mxCell id="ZX3n14dEDowEOb79098K-83" value="ID" style="shape=partialRectangle;top=0;left=0;right=0;bottom=1;html=1;align=left;verticalAlign=middle;fillColor=none;spacingLeft=34;spacingRight=4;whiteSpace=wrap;overflow=hidden;rotatable=0;points=[[0,0.5],[1,0.5]];portConstraint=eastwest;dropTarget=0;fontStyle=5;swimlaneLine=1;shadow=0;" vertex="1" parent="ZX3n14dEDowEOb79098K-82">
          <mxGeometry y="26" width="160" height="30" as="geometry" />
        </mxCell>
        <mxCell id="ZX3n14dEDowEOb79098K-84" value="PK" style="shape=partialRectangle;top=0;left=0;bottom=0;html=1;fillColor=none;align=left;verticalAlign=middle;spacingLeft=4;spacingRight=4;whiteSpace=wrap;overflow=hidden;rotatable=0;points=[];portConstraint=eastwest;part=1;swimlaneLine=1;shadow=0;" vertex="1" connectable="0" parent="ZX3n14dEDowEOb79098K-83">
          <mxGeometry width="30" height="30" as="geometry" />
        </mxCell>
        <mxCell id="ZX3n14dEDowEOb79098K-85" value="Name" style="shape=partialRectangle;top=0;left=0;right=0;bottom=0;html=1;align=left;verticalAlign=top;fillColor=none;spacingLeft=34;spacingRight=4;whiteSpace=wrap;overflow=hidden;rotatable=0;points=[[0,0.5],[1,0.5]];portConstraint=eastwest;dropTarget=0;swimlaneLine=1;shadow=0;" vertex="1" parent="ZX3n14dEDowEOb79098K-82">
          <mxGeometry y="56" width="160" height="26" as="geometry" />
        </mxCell>
        <mxCell id="ZX3n14dEDowEOb79098K-86" value="" style="shape=partialRectangle;top=0;left=0;bottom=0;html=1;fillColor=none;align=left;verticalAlign=top;spacingLeft=4;spacingRight=4;whiteSpace=wrap;overflow=hidden;rotatable=0;points=[];portConstraint=eastwest;part=1;swimlaneLine=1;shadow=0;" vertex="1" connectable="0" parent="ZX3n14dEDowEOb79098K-85">
          <mxGeometry width="30" height="26" as="geometry" />
        </mxCell>
        <mxCell id="ZX3n14dEDowEOb79098K-87" value="MInPrice" style="shape=partialRectangle;top=0;left=0;right=0;bottom=0;html=1;align=left;verticalAlign=top;fillColor=none;spacingLeft=34;spacingRight=4;whiteSpace=wrap;overflow=hidden;rotatable=0;points=[[0,0.5],[1,0.5]];portConstraint=eastwest;dropTarget=0;swimlaneLine=1;shadow=0;" vertex="1" parent="ZX3n14dEDowEOb79098K-82">
          <mxGeometry y="82" width="160" height="26" as="geometry" />
        </mxCell>
        <mxCell id="ZX3n14dEDowEOb79098K-88" value="" style="shape=partialRectangle;top=0;left=0;bottom=0;html=1;fillColor=none;align=left;verticalAlign=top;spacingLeft=4;spacingRight=4;whiteSpace=wrap;overflow=hidden;rotatable=0;points=[];portConstraint=eastwest;part=1;swimlaneLine=1;shadow=0;" vertex="1" connectable="0" parent="ZX3n14dEDowEOb79098K-87">
          <mxGeometry width="30" height="26" as="geometry" />
        </mxCell>
        <mxCell id="ZX3n14dEDowEOb79098K-89" value="MinDuration" style="shape=partialRectangle;top=0;left=0;right=0;bottom=0;html=1;align=left;verticalAlign=top;fillColor=none;spacingLeft=34;spacingRight=4;whiteSpace=wrap;overflow=hidden;rotatable=0;points=[[0,0.5],[1,0.5]];portConstraint=eastwest;dropTarget=0;swimlaneLine=1;shadow=0;" vertex="1" parent="ZX3n14dEDowEOb79098K-82">
          <mxGeometry y="108" width="160" height="26" as="geometry" />
        </mxCell>
        <mxCell id="ZX3n14dEDowEOb79098K-90" value="" style="shape=partialRectangle;top=0;left=0;bottom=0;html=1;fillColor=none;align=left;verticalAlign=top;spacingLeft=4;spacingRight=4;whiteSpace=wrap;overflow=hidden;rotatable=0;points=[];portConstraint=eastwest;part=1;swimlaneLine=1;shadow=0;" vertex="1" connectable="0" parent="ZX3n14dEDowEOb79098K-89">
          <mxGeometry width="30" height="26" as="geometry" />
        </mxCell>
        <mxCell id="ZX3n14dEDowEOb79098K-91" value="" style="edgeStyle=orthogonalEdgeStyle;fontSize=12;html=1;endArrow=ERmany;rounded=0;exitX=1;exitY=0.5;exitDx=0;exitDy=0;entryX=0;entryY=0.5;entryDx=0;entryDy=0;swimlaneLine=1;shadow=0;" edge="1" parent="1" source="ZX3n14dEDowEOb79098K-61" target="ZX3n14dEDowEOb79098K-74">
          <mxGeometry width="100" height="100" relative="1" as="geometry">
            <mxPoint x="274" y="880" as="sourcePoint" />
            <mxPoint x="374" y="780" as="targetPoint" />
          </mxGeometry>
        </mxCell>
        <mxCell id="ZX3n14dEDowEOb79098K-92" value="Measurement" style="swimlane;html=1;fontStyle=0;childLayout=stackLayout;horizontal=1;startSize=26;fillColor=#e0e0e0;horizontalStack=0;resizeParent=1;resizeLast=0;collapsible=1;marginBottom=0;swimlaneFillColor=#ffffff;align=center;rounded=0;shadow=0;comic=0;labelBackgroundColor=none;strokeWidth=1;fontFamily=Verdana;fontSize=14;swimlaneLine=1;" vertex="1" parent="1">
          <mxGeometry x="80" y="760" width="160" height="134" as="geometry">
            <mxRectangle x="500" y="140" width="90" height="30" as="alternateBounds" />
          </mxGeometry>
        </mxCell>
        <mxCell id="ZX3n14dEDowEOb79098K-93" value="ID" style="shape=partialRectangle;top=0;left=0;right=0;bottom=1;html=1;align=left;verticalAlign=middle;fillColor=none;spacingLeft=34;spacingRight=4;whiteSpace=wrap;overflow=hidden;rotatable=0;points=[[0,0.5],[1,0.5]];portConstraint=eastwest;dropTarget=0;fontStyle=5;swimlaneLine=1;shadow=0;" vertex="1" parent="ZX3n14dEDowEOb79098K-92">
          <mxGeometry y="26" width="160" height="30" as="geometry" />
        </mxCell>
        <mxCell id="ZX3n14dEDowEOb79098K-94" value="PK" style="shape=partialRectangle;top=0;left=0;bottom=0;html=1;fillColor=none;align=left;verticalAlign=middle;spacingLeft=4;spacingRight=4;whiteSpace=wrap;overflow=hidden;rotatable=0;points=[];portConstraint=eastwest;part=1;swimlaneLine=1;shadow=0;" vertex="1" connectable="0" parent="ZX3n14dEDowEOb79098K-93">
          <mxGeometry width="30" height="30" as="geometry" />
        </mxCell>
        <mxCell id="ZX3n14dEDowEOb79098K-95" value="IDType" style="shape=partialRectangle;top=0;left=0;right=0;bottom=0;html=1;align=left;verticalAlign=top;fillColor=none;spacingLeft=34;spacingRight=4;whiteSpace=wrap;overflow=hidden;rotatable=0;points=[[0,0.5],[1,0.5]];portConstraint=eastwest;dropTarget=0;swimlaneLine=1;shadow=0;" vertex="1" parent="ZX3n14dEDowEOb79098K-92">
          <mxGeometry y="56" width="160" height="26" as="geometry" />
        </mxCell>
        <mxCell id="ZX3n14dEDowEOb79098K-96" value="" style="shape=partialRectangle;top=0;left=0;bottom=0;html=1;fillColor=none;align=left;verticalAlign=top;spacingLeft=4;spacingRight=4;whiteSpace=wrap;overflow=hidden;rotatable=0;points=[];portConstraint=eastwest;part=1;swimlaneLine=1;shadow=0;" vertex="1" connectable="0" parent="ZX3n14dEDowEOb79098K-95">
          <mxGeometry width="30" height="26" as="geometry" />
        </mxCell>
        <mxCell id="ZX3n14dEDowEOb79098K-97" value="Value" style="shape=partialRectangle;top=0;left=0;right=0;bottom=0;html=1;align=left;verticalAlign=top;fillColor=none;spacingLeft=34;spacingRight=4;whiteSpace=wrap;overflow=hidden;rotatable=0;points=[[0,0.5],[1,0.5]];portConstraint=eastwest;dropTarget=0;swimlaneLine=1;shadow=0;" vertex="1" parent="ZX3n14dEDowEOb79098K-92">
          <mxGeometry y="82" width="160" height="26" as="geometry" />
        </mxCell>
        <mxCell id="ZX3n14dEDowEOb79098K-98" value="" style="shape=partialRectangle;top=0;left=0;bottom=0;html=1;fillColor=none;align=left;verticalAlign=top;spacingLeft=4;spacingRight=4;whiteSpace=wrap;overflow=hidden;rotatable=0;points=[];portConstraint=eastwest;part=1;swimlaneLine=1;shadow=0;" vertex="1" connectable="0" parent="ZX3n14dEDowEOb79098K-97">
          <mxGeometry width="30" height="26" as="geometry" />
        </mxCell>
        <mxCell id="ZX3n14dEDowEOb79098K-99" value="IDOrder" style="shape=partialRectangle;top=0;left=0;right=0;bottom=0;html=1;align=left;verticalAlign=top;fillColor=none;spacingLeft=34;spacingRight=4;whiteSpace=wrap;overflow=hidden;rotatable=0;points=[[0,0.5],[1,0.5]];portConstraint=eastwest;dropTarget=0;swimlaneLine=1;shadow=0;" vertex="1" parent="ZX3n14dEDowEOb79098K-92">
          <mxGeometry y="108" width="160" height="26" as="geometry" />
        </mxCell>
        <mxCell id="ZX3n14dEDowEOb79098K-100" value="" style="shape=partialRectangle;top=0;left=0;bottom=0;html=1;fillColor=none;align=left;verticalAlign=top;spacingLeft=4;spacingRight=4;whiteSpace=wrap;overflow=hidden;rotatable=0;points=[];portConstraint=eastwest;part=1;swimlaneLine=1;shadow=0;" vertex="1" connectable="0" parent="ZX3n14dEDowEOb79098K-99">
          <mxGeometry width="30" height="26" as="geometry" />
        </mxCell>
        <mxCell id="ZX3n14dEDowEOb79098K-101" value="TypeMeasurement" style="swimlane;html=1;fontStyle=0;childLayout=stackLayout;horizontal=1;startSize=26;fillColor=#e0e0e0;horizontalStack=0;resizeParent=1;resizeLast=0;collapsible=1;marginBottom=0;swimlaneFillColor=#ffffff;align=center;rounded=0;shadow=0;comic=0;labelBackgroundColor=none;strokeWidth=1;fontFamily=Verdana;fontSize=14;swimlaneLine=1;" vertex="1" parent="1">
          <mxGeometry x="-160" y="760" width="160" height="82" as="geometry">
            <mxRectangle x="500" y="140" width="90" height="30" as="alternateBounds" />
          </mxGeometry>
        </mxCell>
        <mxCell id="ZX3n14dEDowEOb79098K-102" value="ID" style="shape=partialRectangle;top=0;left=0;right=0;bottom=1;html=1;align=left;verticalAlign=middle;fillColor=none;spacingLeft=34;spacingRight=4;whiteSpace=wrap;overflow=hidden;rotatable=0;points=[[0,0.5],[1,0.5]];portConstraint=eastwest;dropTarget=0;fontStyle=5;swimlaneLine=1;shadow=0;" vertex="1" parent="ZX3n14dEDowEOb79098K-101">
          <mxGeometry y="26" width="160" height="30" as="geometry" />
        </mxCell>
        <mxCell id="ZX3n14dEDowEOb79098K-103" value="PK" style="shape=partialRectangle;top=0;left=0;bottom=0;html=1;fillColor=none;align=left;verticalAlign=middle;spacingLeft=4;spacingRight=4;whiteSpace=wrap;overflow=hidden;rotatable=0;points=[];portConstraint=eastwest;part=1;swimlaneLine=1;shadow=0;" vertex="1" connectable="0" parent="ZX3n14dEDowEOb79098K-102">
          <mxGeometry width="30" height="30" as="geometry" />
        </mxCell>
        <mxCell id="ZX3n14dEDowEOb79098K-104" value="name" style="shape=partialRectangle;top=0;left=0;right=0;bottom=0;html=1;align=left;verticalAlign=top;fillColor=none;spacingLeft=34;spacingRight=4;whiteSpace=wrap;overflow=hidden;rotatable=0;points=[[0,0.5],[1,0.5]];portConstraint=eastwest;dropTarget=0;swimlaneLine=1;shadow=0;" vertex="1" parent="ZX3n14dEDowEOb79098K-101">
          <mxGeometry y="56" width="160" height="26" as="geometry" />
        </mxCell>
        <mxCell id="ZX3n14dEDowEOb79098K-105" value="" style="shape=partialRectangle;top=0;left=0;bottom=0;html=1;fillColor=none;align=left;verticalAlign=top;spacingLeft=4;spacingRight=4;whiteSpace=wrap;overflow=hidden;rotatable=0;points=[];portConstraint=eastwest;part=1;swimlaneLine=1;shadow=0;" vertex="1" connectable="0" parent="ZX3n14dEDowEOb79098K-104">
          <mxGeometry width="30" height="26" as="geometry" />
        </mxCell>
        <mxCell id="ZX3n14dEDowEOb79098K-106" style="edgeStyle=orthogonalEdgeStyle;rounded=0;orthogonalLoop=1;jettySize=auto;html=1;entryX=0;entryY=0.5;entryDx=0;entryDy=0;endArrow=ERmany;endFill=0;swimlaneLine=1;shadow=0;" edge="1" parent="1" source="ZX3n14dEDowEOb79098K-102" target="ZX3n14dEDowEOb79098K-95">
          <mxGeometry relative="1" as="geometry" />
        </mxCell>
        <mxCell id="ZX3n14dEDowEOb79098K-107" style="edgeStyle=orthogonalEdgeStyle;rounded=0;orthogonalLoop=1;jettySize=auto;html=1;entryX=1;entryY=0.5;entryDx=0;entryDy=0;endArrow=ERmany;endFill=0;swimlaneLine=1;shadow=0;" edge="1" parent="1" source="ZX3n14dEDowEOb79098K-70" target="ZX3n14dEDowEOb79098K-99">
          <mxGeometry relative="1" as="geometry" />
        </mxCell>
        <mxCell id="ZX3n14dEDowEOb79098K-108" value="ServiceOrder" style="swimlane;html=1;fontStyle=0;childLayout=stackLayout;horizontal=1;startSize=26;fillColor=#e0e0e0;horizontalStack=0;resizeParent=1;resizeLast=0;collapsible=1;marginBottom=0;swimlaneFillColor=#ffffff;align=center;rounded=0;shadow=0;comic=0;labelBackgroundColor=none;strokeWidth=1;fontFamily=Verdana;fontSize=14;swimlaneLine=1;" vertex="1" parent="1">
          <mxGeometry x="640" y="800" width="160" height="134" as="geometry">
            <mxRectangle x="500" y="140" width="90" height="30" as="alternateBounds" />
          </mxGeometry>
        </mxCell>
        <mxCell id="ZX3n14dEDowEOb79098K-109" value="ID" style="shape=partialRectangle;top=0;left=0;right=0;bottom=1;html=1;align=left;verticalAlign=middle;fillColor=none;spacingLeft=34;spacingRight=4;whiteSpace=wrap;overflow=hidden;rotatable=0;points=[[0,0.5],[1,0.5]];portConstraint=eastwest;dropTarget=0;fontStyle=5;swimlaneLine=1;shadow=0;" vertex="1" parent="ZX3n14dEDowEOb79098K-108">
          <mxGeometry y="26" width="160" height="30" as="geometry" />
        </mxCell>
        <mxCell id="ZX3n14dEDowEOb79098K-110" value="PK" style="shape=partialRectangle;top=0;left=0;bottom=0;html=1;fillColor=none;align=left;verticalAlign=middle;spacingLeft=4;spacingRight=4;whiteSpace=wrap;overflow=hidden;rotatable=0;points=[];portConstraint=eastwest;part=1;swimlaneLine=1;shadow=0;" vertex="1" connectable="0" parent="ZX3n14dEDowEOb79098K-109">
          <mxGeometry width="30" height="30" as="geometry" />
        </mxCell>
        <mxCell id="ZX3n14dEDowEOb79098K-111" value="IDOrder" style="shape=partialRectangle;top=0;left=0;right=0;bottom=0;html=1;align=left;verticalAlign=top;fillColor=none;spacingLeft=34;spacingRight=4;whiteSpace=wrap;overflow=hidden;rotatable=0;points=[[0,0.5],[1,0.5]];portConstraint=eastwest;dropTarget=0;swimlaneLine=1;shadow=0;" vertex="1" parent="ZX3n14dEDowEOb79098K-108">
          <mxGeometry y="56" width="160" height="26" as="geometry" />
        </mxCell>
        <mxCell id="ZX3n14dEDowEOb79098K-112" value="" style="shape=partialRectangle;top=0;left=0;bottom=0;html=1;fillColor=none;align=left;verticalAlign=top;spacingLeft=4;spacingRight=4;whiteSpace=wrap;overflow=hidden;rotatable=0;points=[];portConstraint=eastwest;part=1;swimlaneLine=1;shadow=0;" vertex="1" connectable="0" parent="ZX3n14dEDowEOb79098K-111">
          <mxGeometry width="30" height="26" as="geometry" />
        </mxCell>
        <mxCell id="ZX3n14dEDowEOb79098K-113" value="IDService" style="shape=partialRectangle;top=0;left=0;right=0;bottom=0;html=1;align=left;verticalAlign=top;fillColor=none;spacingLeft=34;spacingRight=4;whiteSpace=wrap;overflow=hidden;rotatable=0;points=[[0,0.5],[1,0.5]];portConstraint=eastwest;dropTarget=0;swimlaneLine=1;shadow=0;" vertex="1" parent="ZX3n14dEDowEOb79098K-108">
          <mxGeometry y="82" width="160" height="26" as="geometry" />
        </mxCell>
        <mxCell id="ZX3n14dEDowEOb79098K-114" value="" style="shape=partialRectangle;top=0;left=0;bottom=0;html=1;fillColor=none;align=left;verticalAlign=top;spacingLeft=4;spacingRight=4;whiteSpace=wrap;overflow=hidden;rotatable=0;points=[];portConstraint=eastwest;part=1;swimlaneLine=1;shadow=0;" vertex="1" connectable="0" parent="ZX3n14dEDowEOb79098K-113">
          <mxGeometry width="30" height="26" as="geometry" />
        </mxCell>
        <mxCell id="ZX3n14dEDowEOb79098K-115" value="Comment" style="shape=partialRectangle;top=0;left=0;right=0;bottom=0;html=1;align=left;verticalAlign=top;fillColor=none;spacingLeft=34;spacingRight=4;whiteSpace=wrap;overflow=hidden;rotatable=0;points=[[0,0.5],[1,0.5]];portConstraint=eastwest;dropTarget=0;swimlaneLine=1;shadow=0;" vertex="1" parent="ZX3n14dEDowEOb79098K-108">
          <mxGeometry y="108" width="160" height="26" as="geometry" />
        </mxCell>
        <mxCell id="ZX3n14dEDowEOb79098K-116" value="" style="shape=partialRectangle;top=0;left=0;bottom=0;html=1;fillColor=none;align=left;verticalAlign=top;spacingLeft=4;spacingRight=4;whiteSpace=wrap;overflow=hidden;rotatable=0;points=[];portConstraint=eastwest;part=1;swimlaneLine=1;shadow=0;" vertex="1" connectable="0" parent="ZX3n14dEDowEOb79098K-115">
          <mxGeometry width="30" height="26" as="geometry" />
        </mxCell>
        <mxCell id="ZX3n14dEDowEOb79098K-117" style="edgeStyle=orthogonalEdgeStyle;rounded=0;orthogonalLoop=1;jettySize=auto;html=1;entryX=1;entryY=0.5;entryDx=0;entryDy=0;endArrow=ERmany;endFill=0;swimlaneLine=1;shadow=0;" edge="1" parent="1" source="ZX3n14dEDowEOb79098K-83" target="ZX3n14dEDowEOb79098K-113">
          <mxGeometry relative="1" as="geometry" />
        </mxCell>
        <mxCell id="ZX3n14dEDowEOb79098K-118" style="edgeStyle=orthogonalEdgeStyle;rounded=0;orthogonalLoop=1;jettySize=auto;html=1;entryX=0;entryY=0.5;entryDx=0;entryDy=0;endArrow=ERmany;endFill=0;swimlaneLine=1;shadow=0;" edge="1" parent="1" source="ZX3n14dEDowEOb79098K-70" target="ZX3n14dEDowEOb79098K-111">
          <mxGeometry relative="1" as="geometry" />
        </mxCell>
      </root>
    </mxGraphModel>
  </diagram>
</mxfile>
